<?xml version="1.0" standalone="no"?>
<!DOCTYPE svg PUBLIC "-//W3C//DTD SVG 20010904//EN"
 "http://www.w3.org/TR/2001/REC-SVG-20010904/DTD/svg10.dtd">
<svg version="1.0" xmlns="http://www.w3.org/2000/svg"
 width="792.000000pt" height="792.000000pt" viewBox="0 0 792.000000 792.000000"
 preserveAspectRatio="xMidYMid meet">
<metadata>
Created by potrace 1.14, written by Peter Selinger 2001-2017
</metadata>
<g transform="translate(0.000000,792.000000) scale(0.100000,-0.100000)"
fill="#000000" stroke="none">
<path d="M1773 7905 c-63 -27 -127 -131 -179 -295 -10 -30 -19 -62 -21 -70 -1
-9 -9 -45 -18 -80 -9 -36 -18 -74 -20 -85 -6 -38 -15 -90 -20 -115 -2 -14 -7
-45 -9 -70 -3 -25 -8 -56 -10 -69 -23 -107 -24 -527 -1 -721 2 -19 7 -64 10
-100 4 -36 9 -74 11 -85 2 -11 6 -40 10 -65 3 -25 10 -72 16 -105 5 -33 11
-71 13 -85 2 -14 13 -68 25 -120 12 -52 24 -108 26 -125 3 -16 9 -41 14 -55 5
-14 11 -36 13 -50 2 -14 7 -32 10 -40 3 -8 8 -26 10 -40 3 -14 13 -50 21 -80
9 -30 18 -75 21 -100 5 -63 15 -139 21 -175 3 -16 7 -39 8 -50 5 -34 27 -138
43 -195 8 -30 16 -66 19 -80 3 -14 23 -77 46 -140 22 -63 40 -123 40 -133 -1
-23 31 -98 49 -118 8 -8 33 -53 57 -99 48 -95 62 -120 111 -200 32 -52 149
-219 161 -230 3 -3 30 -34 60 -69 71 -83 183 -192 263 -254 16 -12 35 -28 42
-34 8 -7 16 -13 20 -13 3 0 15 -9 27 -19 11 -11 59 -43 107 -72 136 -83 130
-73 61 -98 -89 -33 -186 -87 -256 -142 l-60 -48 -13 35 c-20 54 -75 76 -120
47 -30 -19 -108 -91 -160 -147 -75 -80 -107 -115 -126 -138 -118 -141 -175
-209 -200 -241 -16 -21 -35 -44 -40 -50 -6 -7 -45 -57 -88 -112 -42 -55 -86
-110 -97 -121 -11 -12 -20 -25 -20 -29 0 -4 -10 -19 -22 -34 -24 -28 -39 -48
-107 -141 -22 -30 -44 -60 -48 -65 -4 -6 -24 -33 -43 -60 -19 -28 -38 -51 -42
-53 -4 -2 -8 -8 -8 -13 0 -5 -27 -46 -60 -92 -33 -47 -60 -89 -60 -95 0 -6 -4
-12 -9 -14 -10 -3 -119 -169 -137 -208 -4 -8 -15 -26 -24 -40 -21 -30 -95
-172 -95 -182 0 -3 -2 -9 -5 -11 -3 -3 -3 -30 -2 -60 4 -63 10 -68 87 -72 130
-7 346 65 585 197 193 105 468 348 540 476 8 15 18 29 21 32 10 8 95 160 130
232 32 66 46 82 46 55 0 -18 33 -158 43 -182 4 -11 14 -42 21 -70 6 -27 15
-54 19 -60 4 -5 10 -23 14 -40 4 -16 13 -43 21 -60 7 -16 18 -46 26 -65 11
-31 47 -114 97 -220 9 -19 20 -38 25 -41 9 -6 6 -47 -7 -99 -4 -14 -9 -41 -12
-60 -3 -19 -7 -40 -9 -46 -8 -25 -19 -205 -19 -309 1 -231 34 -464 98 -680 2
-5 6 -23 11 -40 13 -49 114 -175 141 -175 7 0 14 -6 17 -13 6 -15 108 -67 167
-85 8 -2 53 -6 100 -8 138 -6 218 25 310 117 33 34 60 65 60 70 0 5 0 12 -1
15 0 4 5 10 12 15 10 6 14 49 15 166 3 216 1 198 21 182 9 -8 18 -13 20 -11 2
2 16 1 31 -2 83 -19 198 -24 255 -12 15 3 38 8 51 10 l25 4 3 -168 3 -168 49
-63 c27 -35 53 -66 58 -67 5 -2 14 -10 21 -17 14 -14 99 -59 107 -57 3 1 23
-3 44 -9 68 -18 182 -10 256 19 14 5 27 9 30 8 3 0 19 9 37 22 17 12 34 22 37
22 11 0 106 89 141 132 25 31 77 166 88 228 3 14 10 43 15 65 6 22 13 56 16
75 3 19 8 48 11 64 3 15 8 47 10 70 3 22 7 59 10 81 14 120 18 211 20 525 l2
345 41 98 c22 53 38 97 35 97 -3 0 -1 6 4 12 10 12 53 135 57 161 1 7 4 17 7
22 4 6 10 28 14 50 4 22 10 44 13 50 4 5 8 16 9 23 2 6 5 18 6 25 2 6 7 30 12
52 4 22 10 49 12 60 4 19 6 33 17 95 3 14 5 25 6 25 1 0 4 21 14 114 5 41 16
70 16 42 0 -19 94 -138 153 -194 107 -101 214 -139 376 -132 53 2 107 7 121
10 14 3 35 8 48 11 12 2 53 16 90 30 37 14 77 28 90 31 12 3 22 10 22 15 0 5
5 6 10 3 6 -3 10 -1 10 4 0 6 8 11 19 11 10 0 24 7 31 15 7 8 16 15 21 15 12
0 167 97 192 121 27 25 29 24 64 -8 155 -145 242 -188 329 -164 58 16 76 48
76 134 1 96 -10 157 -44 246 -5 13 -7 24 -6 25 2 1 16 6 32 11 22 8 32 20 43
55 21 69 25 90 27 160 4 117 -31 202 -115 283 -52 50 -175 117 -199 109 -8 -3
-32 -23 -52 -45 -28 -31 -44 -40 -70 -40 -58 -1 -98 11 -133 38 -35 26 -63 65
-48 65 8 0 78 50 132 95 57 47 182 179 225 237 25 35 50 68 54 73 4 6 17 26
29 45 173 289 240 591 209 941 -4 37 -9 75 -12 83 -3 8 -7 27 -8 43 -2 15 -6
35 -9 43 -5 13 -29 97 -31 110 -1 3 -4 10 -7 15 -6 9 -17 50 -19 67 -2 18
-132 264 -150 283 -11 12 -20 27 -20 33 0 7 -4 12 -10 12 -5 0 -10 6 -10 14 0
8 -3 16 -7 18 -5 2 -33 32 -63 68 -62 74 -160 170 -173 170 -5 0 -6 12 -2 28
4 15 9 34 10 42 2 8 4 15 5 15 1 0 3 7 5 15 3 8 20 74 39 147 20 72 37 142 40
155 2 13 7 41 12 63 4 22 9 49 10 60 1 11 3 20 4 20 1 0 4 14 6 30 2 17 9 59
14 95 14 97 19 146 25 244 3 49 8 93 11 98 3 4 0 8 -7 8 -8 0 -8 4 -2 13 16
19 7 413 -12 517 -20 115 -41 176 -86 249 -24 38 -71 53 -124 40 -25 -6 -45
-15 -45 -20 0 -4 -9 -10 -19 -14 -23 -7 -147 -127 -211 -204 -25 -29 -78 -99
-118 -155 -40 -55 -79 -109 -87 -119 -8 -9 -15 -21 -15 -25 0 -4 -13 -23 -30
-42 -16 -19 -29 -41 -30 -47 0 -7 -3 -13 -7 -13 -5 0 -24 -24 -43 -53 -19 -28
-38 -55 -43 -58 -4 -3 -32 17 -61 45 -63 60 -84 78 -151 128 -27 20 -54 41
-60 45 -79 66 -422 232 -555 268 -8 2 -40 11 -70 20 -84 25 -195 52 -250 60
-14 2 -41 7 -60 11 -19 4 -50 7 -67 8 -18 1 -33 3 -33 6 0 3 -12 5 -27 6 -16
0 -68 4 -118 8 -91 8 -368 9 -439 1 -21 -2 -66 -7 -100 -10 -78 -7 -126 -13
-151 -18 -11 -3 -40 -8 -65 -12 -25 -4 -54 -9 -65 -12 -11 -2 -31 -6 -45 -9
-40 -8 -211 -55 -260 -71 -25 -9 -49 -17 -55 -18 -5 -1 -19 -6 -30 -10 -11 -4
-54 -21 -95 -37 -41 -17 -81 -34 -87 -40 -7 -6 -13 -8 -13 -5 0 6 -101 -45
-210 -106 -30 -17 -87 -52 -127 -79 l-72 -48 -89 183 c-117 238 -141 290 -141
301 1 5 -3 12 -8 15 -4 3 -21 31 -37 61 -16 30 -53 91 -81 136 -126 195 -206
255 -292 219z m4352 -4594 c3 -10 7 -42 10 -70 4 -52 4 -53 -33 -68 -20 -9
-52 -16 -69 -17 -18 0 -33 -5 -33 -9 0 -5 -8 -7 -17 -6 -10 1 -20 0 -23 -1 -7
-3 -54 -9 -120 -16 -111 -12 -366 -6 -450 10 -8 1 -37 6 -65 10 -27 4 -63 11
-80 16 -16 5 -48 11 -70 14 -22 3 -53 9 -70 14 -16 4 -48 7 -70 7 -28 -1 -52
7 -82 27 -36 24 -73 60 -47 46 21 -11 53 -23 89 -32 11 -2 41 -11 67 -19 26
-8 49 -12 52 -9 3 2 12 -1 21 -8 8 -7 15 -10 15 -8 0 3 37 -1 83 -8 79 -12
344 -12 417 0 118 19 292 68 318 88 6 6 12 7 12 3 0 -4 7 -2 15 5 8 7 15 10
15 7 0 -3 19 5 43 18 52 29 64 30 72 6z"/>
<path d="M6926 1398 c-12 -39 -13 -59 -2 -73 10 -13 12 -7 11 34 0 52 -3 61
-9 39z"/>
</g>
</svg>
